<svg xmlns="http://www.w3.org/2000/svg" viewBox="0 0 320 218" role="img" aria-label="MTF chart, generated from readings">
<style>.grid-line { stroke: #d8d8d8; stroke-width: 0.5; }.axis-label { font-size: 7px; fill: #666666; font-family: ui-monospace, monospace; }.axis-y { text-anchor: end; }.axis-x { text-anchor: middle; }.axis-title { font-size: 7px; fill: #666666; text-anchor: middle; }.curve { fill: none; stroke-width: 1.5; }.curve-m { stroke-dasharray: 4 2; }.dot { fill: white; stroke-width: 1; }.legend-text { font-size: 7px; fill: #666666; font-family: ui-monospace, monospace; }</style>
<line class="grid-line" x1="36" y1="172.0" x2="304" y2="172.0"/>
<line class="grid-line" x1="36" y1="140.0" x2="304" y2="140.0"/>
<line class="grid-line" x1="36" y1="108.0" x2="304" y2="108.0"/>
<line class="grid-line" x1="36" y1="76.0" x2="304" y2="76.0"/>
<line class="grid-line" x1="36" y1="44.0" x2="304" y2="44.0"/>
<line class="grid-line" x1="36" y1="12.0" x2="304" y2="12.0"/>
<text class="axis-label axis-y" x="32" y="175.0">0.0</text>
<text class="axis-label axis-y" x="32" y="143.0">0.2</text>
<text class="axis-label axis-y" x="32" y="111.0">0.4</text>
<text class="axis-label axis-y" x="32" y="79.0">0.6</text>
<text class="axis-label axis-y" x="32" y="47.0">0.8</text>
<text class="axis-label axis-y" x="32" y="15.0">1.0</text>
<text class="axis-label axis-x" x="36.0" y="186">C</text>
<text class="axis-label axis-x" x="62.8" y="186">1.4</text>
<text class="axis-label axis-x" x="89.6" y="186">2.8</text>
<text class="axis-label axis-x" x="116.4" y="186">4.3</text>
<text class="axis-label axis-x" x="143.2" y="186">5.7</text>
<text class="axis-label axis-x" x="170.0" y="186">7.1</text>
<text class="axis-label axis-x" x="196.8" y="186">8.5</text>
<text class="axis-label axis-x" x="223.6" y="186">9.9</text>
<text class="axis-label axis-x" x="250.4" y="186">11.4</text>
<text class="axis-label axis-x" x="277.2" y="186">12.8</text>
<text class="axis-label axis-x" x="304.0" y="186">14.2</text>
<text class="axis-title" x="170.0" y="198">Image height (mm)</text>
<polyline class="curve curve-10" style="stroke:#c89b3c" points="36.0,13.9 62.8,13.9 89.6,13.7 116.4,13.7 143.2,14.3 170.0,14.8 196.8,15.4 223.6,17.1 250.4,19.0 277.2,21.2 304.0,24.0"/>
<polyline class="curve curve-10 curve-m" style="stroke:#c89b3c" points="36.0,13.9 62.8,13.9 89.6,13.7 116.4,16.4 143.2,17.3 170.0,19.3 196.8,21.8 223.6,24.8 250.4,28.9 277.2,33.4 304.0,37.6" stroke-dasharray="4 2"/>
<polyline class="curve curve-30" style="stroke:#6b9bd2" points="36.0,15.2 62.8,16.4 89.6,17.6 116.4,19.5 143.2,21.8 170.0,25.6 196.8,32.4 223.6,40.4 250.4,48.4 277.2,56.2 304.0,63.0"/>
<polyline class="curve curve-30 curve-m" style="stroke:#6b9bd2" points="36.0,15.2 62.8,21.4 89.6,28.3 116.4,35.7 143.2,44.7 170.0,55.5 196.8,68.5 223.6,81.9 250.4,90.8 277.2,96.7 304.0,98.6" stroke-dasharray="4 2"/>
<circle class="dot dot-10" style="stroke:#c89b3c" cx="36.0" cy="13.9" r="2"/>
<circle class="dot dot-10" style="stroke:#c89b3c" cx="62.8" cy="13.9" r="2"/>
<circle class="dot dot-10" style="stroke:#c89b3c" cx="89.6" cy="13.7" r="2"/>
<circle class="dot dot-10" style="stroke:#c89b3c" cx="116.4" cy="13.7" r="2"/>
<circle class="dot dot-10" style="stroke:#c89b3c" cx="143.2" cy="14.3" r="2"/>
<circle class="dot dot-10" style="stroke:#c89b3c" cx="170.0" cy="14.8" r="2"/>
<circle class="dot dot-10" style="stroke:#c89b3c" cx="196.8" cy="15.4" r="2"/>
<circle class="dot dot-10" style="stroke:#c89b3c" cx="223.6" cy="17.1" r="2"/>
<circle class="dot dot-10" style="stroke:#c89b3c" cx="250.4" cy="19.0" r="2"/>
<circle class="dot dot-10" style="stroke:#c89b3c" cx="277.2" cy="21.2" r="2"/>
<circle class="dot dot-10" style="stroke:#c89b3c" cx="304.0" cy="24.0" r="2"/>
<circle class="dot dot-10" style="stroke:#c89b3c" cx="36.0" cy="13.9" r="2"/>
<circle class="dot dot-10" style="stroke:#c89b3c" cx="62.8" cy="13.9" r="2"/>
<circle class="dot dot-10" style="stroke:#c89b3c" cx="89.6" cy="13.7" r="2"/>
<circle class="dot dot-10" style="stroke:#c89b3c" cx="116.4" cy="16.4" r="2"/>
<circle class="dot dot-10" style="stroke:#c89b3c" cx="143.2" cy="17.3" r="2"/>
<circle class="dot dot-10" style="stroke:#c89b3c" cx="170.0" cy="19.3" r="2"/>
<circle class="dot dot-10" style="stroke:#c89b3c" cx="196.8" cy="21.8" r="2"/>
<circle class="dot dot-10" style="stroke:#c89b3c" cx="223.6" cy="24.8" r="2"/>
<circle class="dot dot-10" style="stroke:#c89b3c" cx="250.4" cy="28.9" r="2"/>
<circle class="dot dot-10" style="stroke:#c89b3c" cx="277.2" cy="33.4" r="2"/>
<circle class="dot dot-10" style="stroke:#c89b3c" cx="304.0" cy="37.6" r="2"/>
<circle class="dot dot-30" style="stroke:#6b9bd2" cx="36.0" cy="15.2" r="2"/>
<circle class="dot dot-30" style="stroke:#6b9bd2" cx="62.8" cy="16.4" r="2"/>
<circle class="dot dot-30" style="stroke:#6b9bd2" cx="89.6" cy="17.6" r="2"/>
<circle class="dot dot-30" style="stroke:#6b9bd2" cx="116.4" cy="19.5" r="2"/>
<circle class="dot dot-30" style="stroke:#6b9bd2" cx="143.2" cy="21.8" r="2"/>
<circle class="dot dot-30" style="stroke:#6b9bd2" cx="170.0" cy="25.6" r="2"/>
<circle class="dot dot-30" style="stroke:#6b9bd2" cx="196.8" cy="32.4" r="2"/>
<circle class="dot dot-30" style="stroke:#6b9bd2" cx="223.6" cy="40.4" r="2"/>
<circle class="dot dot-30" style="stroke:#6b9bd2" cx="250.4" cy="48.4" r="2"/>
<circle class="dot dot-30" style="stroke:#6b9bd2" cx="277.2" cy="56.2" r="2"/>
<circle class="dot dot-30" style="stroke:#6b9bd2" cx="304.0" cy="63.0" r="2"/>
<circle class="dot dot-30" style="stroke:#6b9bd2" cx="36.0" cy="15.2" r="2"/>
<circle class="dot dot-30" style="stroke:#6b9bd2" cx="62.8" cy="21.4" r="2"/>
<circle class="dot dot-30" style="stroke:#6b9bd2" cx="89.6" cy="28.3" r="2"/>
<circle class="dot dot-30" style="stroke:#6b9bd2" cx="116.4" cy="35.7" r="2"/>
<circle class="dot dot-30" style="stroke:#6b9bd2" cx="143.2" cy="44.7" r="2"/>
<circle class="dot dot-30" style="stroke:#6b9bd2" cx="170.0" cy="55.5" r="2"/>
<circle class="dot dot-30" style="stroke:#6b9bd2" cx="196.8" cy="68.5" r="2"/>
<circle class="dot dot-30" style="stroke:#6b9bd2" cx="223.6" cy="81.9" r="2"/>
<circle class="dot dot-30" style="stroke:#6b9bd2" cx="250.4" cy="90.8" r="2"/>
<circle class="dot dot-30" style="stroke:#6b9bd2" cx="277.2" cy="96.7" r="2"/>
<circle class="dot dot-30" style="stroke:#6b9bd2" cx="304.0" cy="98.6" r="2"/>
<line x1="36" y1="209" x2="48" y2="209" stroke="#c89b3c" stroke-width="1.5"/>
<text class="legend-text" x="51" y="212">10 lp/mm S</text>
<line x1="92" y1="209" x2="104" y2="209" stroke="#c89b3c" stroke-width="1.5" stroke-dasharray="3 2"/>
<text class="legend-text" x="107" y="212">10 lp/mm M</text>
<line x1="148" y1="209" x2="160" y2="209" stroke="#6b9bd2" stroke-width="1.5"/>
<text class="legend-text" x="163" y="212">30 lp/mm S</text>
<line x1="204" y1="209" x2="216" y2="209" stroke="#6b9bd2" stroke-width="1.5" stroke-dasharray="3 2"/>
<text class="legend-text" x="219" y="212">30 lp/mm M</text>
</svg>
