<svg xmlns="http://www.w3.org/2000/svg" viewBox="0 0 320 218" role="img" aria-label="MTF chart, generated from readings">
<style>.grid-line { stroke: #d8d8d8; stroke-width: 0.5; }.axis-label { font-size: 7px; fill: #666666; font-family: ui-monospace, monospace; }.axis-y { text-anchor: end; }.axis-x { text-anchor: middle; }.axis-title { font-size: 7px; fill: #666666; text-anchor: middle; }.curve { fill: none; stroke-width: 1.5; }.curve-10 { stroke: #c89b3c; }.curve-30 { stroke: #6b9bd2; }.curve-m { stroke-dasharray: 4 2; }.dot { fill: white; stroke-width: 1; }.dot-10 { stroke: #c89b3c; }.dot-30 { stroke: #6b9bd2; }.legend-text { font-size: 7px; fill: #666666; font-family: ui-monospace, monospace; }</style>
<line class="grid-line" x1="36" y1="172.0" x2="304" y2="172.0"/>
<line class="grid-line" x1="36" y1="140.0" x2="304" y2="140.0"/>
<line class="grid-line" x1="36" y1="108.0" x2="304" y2="108.0"/>
<line class="grid-line" x1="36" y1="76.0" x2="304" y2="76.0"/>
<line class="grid-line" x1="36" y1="44.0" x2="304" y2="44.0"/>
<line class="grid-line" x1="36" y1="12.0" x2="304" y2="12.0"/>
<text class="axis-label axis-y" x="32" y="175.0">0.0</text>
<text class="axis-label axis-y" x="32" y="143.0">0.2</text>
<text class="axis-label axis-y" x="32" y="111.0">0.4</text>
<text class="axis-label axis-y" x="32" y="79.0">0.6</text>
<text class="axis-label axis-y" x="32" y="47.0">0.8</text>
<text class="axis-label axis-y" x="32" y="15.0">1.0</text>
<text class="axis-label axis-x" x="36.0" y="186">C</text>
<text class="axis-label axis-x" x="62.8" y="186">1.4</text>
<text class="axis-label axis-x" x="89.6" y="186">2.8</text>
<text class="axis-label axis-x" x="116.4" y="186">4.2</text>
<text class="axis-label axis-x" x="143.2" y="186">5.6</text>
<text class="axis-label axis-x" x="170.0" y="186">7</text>
<text class="axis-label axis-x" x="196.8" y="186">8.4</text>
<text class="axis-label axis-x" x="223.6" y="186">9.8</text>
<text class="axis-label axis-x" x="250.4" y="186">11.2</text>
<text class="axis-label axis-x" x="277.2" y="186">12.6</text>
<text class="axis-label axis-x" x="304.0" y="186">14</text>
<text class="axis-title" x="170.0" y="198">Image height (mm)</text>
<polyline class="curve curve-10" points="36.0,24.6 62.8,25.6 89.6,26.6 116.4,26.6 143.2,25.7 170.0,28.5 196.8,33.4 223.6,35.0 250.4,33.6 277.2,35.5 304.0,45.4"/>
<polyline class="curve curve-10 curve-m" points="36.0,24.6 62.8,25.2 89.6,27.8 116.4,22.6 143.2,28.2 170.0,33.0 196.8,32.9 223.6,38.7 250.4,43.7 277.2,49.8 304.0,66.6" stroke-dasharray="4 2"/>
<polyline class="curve curve-30" points="36.0,58.6 62.8,61.3 89.6,63.5 116.4,61.1 143.2,60.2 170.0,67.4 196.8,81.3 223.6,90.0 250.4,85.9 277.2,82.0 304.0,106.6"/>
<polyline class="curve curve-30 curve-m" points="36.0,58.6 62.8,62.5 89.6,68.0 116.4,68.5 143.2,79.5 170.0,89.3 196.8,94.9 223.6,100.8 250.4,98.9 277.2,93.9 304.0,103.4" stroke-dasharray="4 2"/>
<circle class="dot dot-10" cx="36.0" cy="24.6" r="2"/>
<circle class="dot dot-10" cx="62.8" cy="25.6" r="2"/>
<circle class="dot dot-10" cx="89.6" cy="26.6" r="2"/>
<circle class="dot dot-10" cx="116.4" cy="26.6" r="2"/>
<circle class="dot dot-10" cx="143.2" cy="25.7" r="2"/>
<circle class="dot dot-10" cx="170.0" cy="28.5" r="2"/>
<circle class="dot dot-10" cx="196.8" cy="33.4" r="2"/>
<circle class="dot dot-10" cx="223.6" cy="35.0" r="2"/>
<circle class="dot dot-10" cx="250.4" cy="33.6" r="2"/>
<circle class="dot dot-10" cx="277.2" cy="35.5" r="2"/>
<circle class="dot dot-10" cx="304.0" cy="45.4" r="2"/>
<circle class="dot dot-10" cx="36.0" cy="24.6" r="2"/>
<circle class="dot dot-10" cx="62.8" cy="25.2" r="2"/>
<circle class="dot dot-10" cx="89.6" cy="27.8" r="2"/>
<circle class="dot dot-10" cx="116.4" cy="22.6" r="2"/>
<circle class="dot dot-10" cx="143.2" cy="28.2" r="2"/>
<circle class="dot dot-10" cx="170.0" cy="33.0" r="2"/>
<circle class="dot dot-10" cx="196.8" cy="32.9" r="2"/>
<circle class="dot dot-10" cx="223.6" cy="38.7" r="2"/>
<circle class="dot dot-10" cx="250.4" cy="43.7" r="2"/>
<circle class="dot dot-10" cx="277.2" cy="49.8" r="2"/>
<circle class="dot dot-10" cx="304.0" cy="66.6" r="2"/>
<circle class="dot dot-30" cx="36.0" cy="58.6" r="2"/>
<circle class="dot dot-30" cx="62.8" cy="61.3" r="2"/>
<circle class="dot dot-30" cx="89.6" cy="63.5" r="2"/>
<circle class="dot dot-30" cx="116.4" cy="61.1" r="2"/>
<circle class="dot dot-30" cx="143.2" cy="60.2" r="2"/>
<circle class="dot dot-30" cx="170.0" cy="67.4" r="2"/>
<circle class="dot dot-30" cx="196.8" cy="81.3" r="2"/>
<circle class="dot dot-30" cx="223.6" cy="90.0" r="2"/>
<circle class="dot dot-30" cx="250.4" cy="85.9" r="2"/>
<circle class="dot dot-30" cx="277.2" cy="82.0" r="2"/>
<circle class="dot dot-30" cx="304.0" cy="106.6" r="2"/>
<circle class="dot dot-30" cx="36.0" cy="58.6" r="2"/>
<circle class="dot dot-30" cx="62.8" cy="62.5" r="2"/>
<circle class="dot dot-30" cx="89.6" cy="68.0" r="2"/>
<circle class="dot dot-30" cx="116.4" cy="68.5" r="2"/>
<circle class="dot dot-30" cx="143.2" cy="79.5" r="2"/>
<circle class="dot dot-30" cx="170.0" cy="89.3" r="2"/>
<circle class="dot dot-30" cx="196.8" cy="94.9" r="2"/>
<circle class="dot dot-30" cx="223.6" cy="100.8" r="2"/>
<circle class="dot dot-30" cx="250.4" cy="98.9" r="2"/>
<circle class="dot dot-30" cx="277.2" cy="93.9" r="2"/>
<circle class="dot dot-30" cx="304.0" cy="103.4" r="2"/>
<line x1="36" y1="209" x2="48" y2="209" stroke="#c89b3c" stroke-width="1.5"/>
<text class="legend-text" x="51" y="212">10 lp/mm S</text>
<line x1="92" y1="209" x2="104" y2="209" stroke="#c89b3c" stroke-width="1.5" stroke-dasharray="3 2"/>
<text class="legend-text" x="107" y="212">10 lp/mm M</text>
<line x1="148" y1="209" x2="160" y2="209" stroke="#6b9bd2" stroke-width="1.5"/>
<text class="legend-text" x="163" y="212">30 lp/mm S</text>
<line x1="204" y1="209" x2="216" y2="209" stroke="#6b9bd2" stroke-width="1.5" stroke-dasharray="3 2"/>
<text class="legend-text" x="219" y="212">30 lp/mm M</text>
</svg>
