<svg xmlns="http://www.w3.org/2000/svg" viewBox="0 0 320 218" role="img" aria-label="MTF chart, generated from readings">
<style>.grid-line { stroke: #d8d8d8; stroke-width: 0.5; }.axis-label { font-size: 7px; fill: #666666; font-family: ui-monospace, monospace; }.axis-y { text-anchor: end; }.axis-x { text-anchor: middle; }.axis-title { font-size: 7px; fill: #666666; text-anchor: middle; }.curve { fill: none; stroke-width: 1.5; }.curve-m { stroke-dasharray: 4 2; }.dot { fill: white; stroke-width: 1; }.legend-text { font-size: 7px; fill: #666666; font-family: ui-monospace, monospace; }</style>
<line class="grid-line" x1="36" y1="172.0" x2="304" y2="172.0"/>
<line class="grid-line" x1="36" y1="140.0" x2="304" y2="140.0"/>
<line class="grid-line" x1="36" y1="108.0" x2="304" y2="108.0"/>
<line class="grid-line" x1="36" y1="76.0" x2="304" y2="76.0"/>
<line class="grid-line" x1="36" y1="44.0" x2="304" y2="44.0"/>
<line class="grid-line" x1="36" y1="12.0" x2="304" y2="12.0"/>
<text class="axis-label axis-y" x="32" y="175.0">0.0</text>
<text class="axis-label axis-y" x="32" y="143.0">0.2</text>
<text class="axis-label axis-y" x="32" y="111.0">0.4</text>
<text class="axis-label axis-y" x="32" y="79.0">0.6</text>
<text class="axis-label axis-y" x="32" y="47.0">0.8</text>
<text class="axis-label axis-y" x="32" y="15.0">1.0</text>
<text class="axis-label axis-x" x="36.0" y="186">C</text>
<text class="axis-label axis-x" x="62.8" y="186">2.0</text>
<text class="axis-label axis-x" x="89.6" y="186">4.1</text>
<text class="axis-label axis-x" x="116.4" y="186">6.2</text>
<text class="axis-label axis-x" x="143.2" y="186">8.2</text>
<text class="axis-label axis-x" x="170.0" y="186">10.2</text>
<text class="axis-label axis-x" x="196.8" y="186">12.3</text>
<text class="axis-label axis-x" x="223.6" y="186">14.3</text>
<text class="axis-label axis-x" x="250.4" y="186">16.4</text>
<text class="axis-label axis-x" x="277.2" y="186">18.4</text>
<text class="axis-label axis-x" x="304.0" y="186">20.5</text>
<text class="axis-title" x="170.0" y="198">Image height (mm)</text>
<polyline class="curve curve-10" style="stroke:#c89b3c" points="36.0,23.7 62.8,22.8 89.6,22.8 116.4,21.8 143.2,22.1 170.0,22.8 196.8,23.7 223.6,23.7 250.4,22.8 277.2,20.9"/>
<polyline class="curve curve-10 curve-m" style="stroke:#c89b3c" points="36.0,23.7 62.8,22.8 89.6,20.9 116.4,20.4 143.2,19.0 170.0,19.5 196.8,21.8 223.6,22.3 250.4,22.8 277.2,27.2" stroke-dasharray="4 2"/>
<polyline class="curve curve-30" style="stroke:#6b9bd2" points="36.0,31.4 62.8,31.4 89.6,32.1 116.4,34.7 143.2,39.1 170.0,47.6 196.8,56.9 223.6,63.9 250.4,60.9 277.2,47.6"/>
<polyline class="curve curve-30 curve-m" style="stroke:#6b9bd2" points="36.0,31.4 62.8,31.4 89.6,32.1 116.4,33.8 143.2,33.5 170.0,35.2 196.8,38.9 223.6,44.7 250.4,54.8 277.2,70.5" stroke-dasharray="4 2"/>
<circle class="dot dot-10" style="stroke:#c89b3c" cx="36.0" cy="23.7" r="2"/>
<circle class="dot dot-10" style="stroke:#c89b3c" cx="62.8" cy="22.8" r="2"/>
<circle class="dot dot-10" style="stroke:#c89b3c" cx="89.6" cy="22.8" r="2"/>
<circle class="dot dot-10" style="stroke:#c89b3c" cx="116.4" cy="21.8" r="2"/>
<circle class="dot dot-10" style="stroke:#c89b3c" cx="143.2" cy="22.1" r="2"/>
<circle class="dot dot-10" style="stroke:#c89b3c" cx="170.0" cy="22.8" r="2"/>
<circle class="dot dot-10" style="stroke:#c89b3c" cx="196.8" cy="23.7" r="2"/>
<circle class="dot dot-10" style="stroke:#c89b3c" cx="223.6" cy="23.7" r="2"/>
<circle class="dot dot-10" style="stroke:#c89b3c" cx="250.4" cy="22.8" r="2"/>
<circle class="dot dot-10" style="stroke:#c89b3c" cx="277.2" cy="20.9" r="2"/>
<circle class="dot dot-10" style="stroke:#c89b3c" cx="36.0" cy="23.7" r="2"/>
<circle class="dot dot-10" style="stroke:#c89b3c" cx="62.8" cy="22.8" r="2"/>
<circle class="dot dot-10" style="stroke:#c89b3c" cx="89.6" cy="20.9" r="2"/>
<circle class="dot dot-10" style="stroke:#c89b3c" cx="116.4" cy="20.4" r="2"/>
<circle class="dot dot-10" style="stroke:#c89b3c" cx="143.2" cy="19.0" r="2"/>
<circle class="dot dot-10" style="stroke:#c89b3c" cx="170.0" cy="19.5" r="2"/>
<circle class="dot dot-10" style="stroke:#c89b3c" cx="196.8" cy="21.8" r="2"/>
<circle class="dot dot-10" style="stroke:#c89b3c" cx="223.6" cy="22.3" r="2"/>
<circle class="dot dot-10" style="stroke:#c89b3c" cx="250.4" cy="22.8" r="2"/>
<circle class="dot dot-10" style="stroke:#c89b3c" cx="277.2" cy="27.2" r="2"/>
<circle class="dot dot-30" style="stroke:#6b9bd2" cx="36.0" cy="31.4" r="2"/>
<circle class="dot dot-30" style="stroke:#6b9bd2" cx="62.8" cy="31.4" r="2"/>
<circle class="dot dot-30" style="stroke:#6b9bd2" cx="89.6" cy="32.1" r="2"/>
<circle class="dot dot-30" style="stroke:#6b9bd2" cx="116.4" cy="34.7" r="2"/>
<circle class="dot dot-30" style="stroke:#6b9bd2" cx="143.2" cy="39.1" r="2"/>
<circle class="dot dot-30" style="stroke:#6b9bd2" cx="170.0" cy="47.6" r="2"/>
<circle class="dot dot-30" style="stroke:#6b9bd2" cx="196.8" cy="56.9" r="2"/>
<circle class="dot dot-30" style="stroke:#6b9bd2" cx="223.6" cy="63.9" r="2"/>
<circle class="dot dot-30" style="stroke:#6b9bd2" cx="250.4" cy="60.9" r="2"/>
<circle class="dot dot-30" style="stroke:#6b9bd2" cx="277.2" cy="47.6" r="2"/>
<circle class="dot dot-30" style="stroke:#6b9bd2" cx="36.0" cy="31.4" r="2"/>
<circle class="dot dot-30" style="stroke:#6b9bd2" cx="62.8" cy="31.4" r="2"/>
<circle class="dot dot-30" style="stroke:#6b9bd2" cx="89.6" cy="32.1" r="2"/>
<circle class="dot dot-30" style="stroke:#6b9bd2" cx="116.4" cy="33.8" r="2"/>
<circle class="dot dot-30" style="stroke:#6b9bd2" cx="143.2" cy="33.5" r="2"/>
<circle class="dot dot-30" style="stroke:#6b9bd2" cx="170.0" cy="35.2" r="2"/>
<circle class="dot dot-30" style="stroke:#6b9bd2" cx="196.8" cy="38.9" r="2"/>
<circle class="dot dot-30" style="stroke:#6b9bd2" cx="223.6" cy="44.7" r="2"/>
<circle class="dot dot-30" style="stroke:#6b9bd2" cx="250.4" cy="54.8" r="2"/>
<circle class="dot dot-30" style="stroke:#6b9bd2" cx="277.2" cy="70.5" r="2"/>
<line x1="36" y1="209" x2="48" y2="209" stroke="#c89b3c" stroke-width="1.5"/>
<text class="legend-text" x="51" y="212">10 lp/mm S</text>
<line x1="92" y1="209" x2="104" y2="209" stroke="#c89b3c" stroke-width="1.5" stroke-dasharray="3 2"/>
<text class="legend-text" x="107" y="212">10 lp/mm M</text>
<line x1="148" y1="209" x2="160" y2="209" stroke="#6b9bd2" stroke-width="1.5"/>
<text class="legend-text" x="163" y="212">30 lp/mm S</text>
<line x1="204" y1="209" x2="216" y2="209" stroke="#6b9bd2" stroke-width="1.5" stroke-dasharray="3 2"/>
<text class="legend-text" x="219" y="212">30 lp/mm M</text>
</svg>
