<svg xmlns="http://www.w3.org/2000/svg" viewBox="0 0 320 218" role="img" aria-label="MTF chart, generated from readings">
<style>.grid-line { stroke: #d8d8d8; stroke-width: 0.5; }.axis-label { font-size: 7px; fill: #666666; font-family: ui-monospace, monospace; }.axis-y { text-anchor: end; }.axis-x { text-anchor: middle; }.axis-title { font-size: 7px; fill: #666666; text-anchor: middle; }.curve { fill: none; stroke-width: 1.5; }.curve-m { stroke-dasharray: 4 2; }.dot { fill: white; stroke-width: 1; }.legend-text { font-size: 7px; fill: #666666; font-family: ui-monospace, monospace; }</style>
<line class="grid-line" x1="36" y1="172.0" x2="304" y2="172.0"/>
<line class="grid-line" x1="36" y1="140.0" x2="304" y2="140.0"/>
<line class="grid-line" x1="36" y1="108.0" x2="304" y2="108.0"/>
<line class="grid-line" x1="36" y1="76.0" x2="304" y2="76.0"/>
<line class="grid-line" x1="36" y1="44.0" x2="304" y2="44.0"/>
<line class="grid-line" x1="36" y1="12.0" x2="304" y2="12.0"/>
<text class="axis-label axis-y" x="32" y="175.0">0.0</text>
<text class="axis-label axis-y" x="32" y="143.0">0.2</text>
<text class="axis-label axis-y" x="32" y="111.0">0.4</text>
<text class="axis-label axis-y" x="32" y="79.0">0.6</text>
<text class="axis-label axis-y" x="32" y="47.0">0.8</text>
<text class="axis-label axis-y" x="32" y="15.0">1.0</text>
<text class="axis-label axis-x" x="36.0" y="186">C</text>
<text class="axis-label axis-x" x="62.8" y="186">1.4</text>
<text class="axis-label axis-x" x="89.6" y="186">2.8</text>
<text class="axis-label axis-x" x="116.4" y="186">4.2</text>
<text class="axis-label axis-x" x="143.2" y="186">5.6</text>
<text class="axis-label axis-x" x="170.0" y="186">7</text>
<text class="axis-label axis-x" x="196.8" y="186">8.4</text>
<text class="axis-label axis-x" x="223.6" y="186">9.8</text>
<text class="axis-label axis-x" x="250.4" y="186">11.2</text>
<text class="axis-label axis-x" x="277.2" y="186">12.6</text>
<text class="axis-label axis-x" x="304.0" y="186">14</text>
<text class="axis-title" x="170.0" y="198">Image height (mm)</text>
<polyline class="curve curve-10" style="stroke:#c89b3c" points="36.0,22.2 62.8,20.3 89.6,19.4 116.4,20.3 143.2,21.7 170.0,25.9 196.8,27.8 223.6,28.7 250.4,28.0 277.2,25.9 304.0,25.0"/>
<polyline class="curve curve-10 curve-m" style="stroke:#c89b3c" points="36.0,22.2 62.8,20.3 89.6,19.4 116.4,19.9 143.2,21.7 170.0,21.3 196.8,21.3 223.6,22.2 250.4,28.0 277.2,42.8 304.0,51.4" stroke-dasharray="4 2"/>
<polyline class="curve curve-30" style="stroke:#6b9bd2" points="36.0,58.8 62.8,56.1 89.6,55.6 116.4,62.1 143.2,75.1 170.0,84.8 196.8,87.4 223.6,94.1 250.4,98.5 277.2,86.7 304.0,80.6"/>
<polyline class="curve curve-30 curve-m" style="stroke:#6b9bd2" points="36.0,58.8 62.8,49.6 89.6,54.2 116.4,51.4 143.2,57.4 170.0,64.6 196.8,65.8 223.6,59.8 250.4,60.9 277.2,79.9 304.0,93.6" stroke-dasharray="4 2"/>
<circle class="dot dot-10" style="stroke:#c89b3c" cx="36.0" cy="22.2" r="2"/>
<circle class="dot dot-10" style="stroke:#c89b3c" cx="62.8" cy="20.3" r="2"/>
<circle class="dot dot-10" style="stroke:#c89b3c" cx="89.6" cy="19.4" r="2"/>
<circle class="dot dot-10" style="stroke:#c89b3c" cx="116.4" cy="20.3" r="2"/>
<circle class="dot dot-10" style="stroke:#c89b3c" cx="143.2" cy="21.7" r="2"/>
<circle class="dot dot-10" style="stroke:#c89b3c" cx="170.0" cy="25.9" r="2"/>
<circle class="dot dot-10" style="stroke:#c89b3c" cx="196.8" cy="27.8" r="2"/>
<circle class="dot dot-10" style="stroke:#c89b3c" cx="223.6" cy="28.7" r="2"/>
<circle class="dot dot-10" style="stroke:#c89b3c" cx="250.4" cy="28.0" r="2"/>
<circle class="dot dot-10" style="stroke:#c89b3c" cx="277.2" cy="25.9" r="2"/>
<circle class="dot dot-10" style="stroke:#c89b3c" cx="304.0" cy="25.0" r="2"/>
<circle class="dot dot-10" style="stroke:#c89b3c" cx="36.0" cy="22.2" r="2"/>
<circle class="dot dot-10" style="stroke:#c89b3c" cx="62.8" cy="20.3" r="2"/>
<circle class="dot dot-10" style="stroke:#c89b3c" cx="89.6" cy="19.4" r="2"/>
<circle class="dot dot-10" style="stroke:#c89b3c" cx="116.4" cy="19.9" r="2"/>
<circle class="dot dot-10" style="stroke:#c89b3c" cx="143.2" cy="21.7" r="2"/>
<circle class="dot dot-10" style="stroke:#c89b3c" cx="170.0" cy="21.3" r="2"/>
<circle class="dot dot-10" style="stroke:#c89b3c" cx="196.8" cy="21.3" r="2"/>
<circle class="dot dot-10" style="stroke:#c89b3c" cx="223.6" cy="22.2" r="2"/>
<circle class="dot dot-10" style="stroke:#c89b3c" cx="250.4" cy="28.0" r="2"/>
<circle class="dot dot-10" style="stroke:#c89b3c" cx="277.2" cy="42.8" r="2"/>
<circle class="dot dot-10" style="stroke:#c89b3c" cx="304.0" cy="51.4" r="2"/>
<circle class="dot dot-30" style="stroke:#6b9bd2" cx="36.0" cy="58.8" r="2"/>
<circle class="dot dot-30" style="stroke:#6b9bd2" cx="62.8" cy="56.1" r="2"/>
<circle class="dot dot-30" style="stroke:#6b9bd2" cx="89.6" cy="55.6" r="2"/>
<circle class="dot dot-30" style="stroke:#6b9bd2" cx="116.4" cy="62.1" r="2"/>
<circle class="dot dot-30" style="stroke:#6b9bd2" cx="143.2" cy="75.1" r="2"/>
<circle class="dot dot-30" style="stroke:#6b9bd2" cx="170.0" cy="84.8" r="2"/>
<circle class="dot dot-30" style="stroke:#6b9bd2" cx="196.8" cy="87.4" r="2"/>
<circle class="dot dot-30" style="stroke:#6b9bd2" cx="223.6" cy="94.1" r="2"/>
<circle class="dot dot-30" style="stroke:#6b9bd2" cx="250.4" cy="98.5" r="2"/>
<circle class="dot dot-30" style="stroke:#6b9bd2" cx="277.2" cy="86.7" r="2"/>
<circle class="dot dot-30" style="stroke:#6b9bd2" cx="304.0" cy="80.6" r="2"/>
<circle class="dot dot-30" style="stroke:#6b9bd2" cx="36.0" cy="58.8" r="2"/>
<circle class="dot dot-30" style="stroke:#6b9bd2" cx="62.8" cy="49.6" r="2"/>
<circle class="dot dot-30" style="stroke:#6b9bd2" cx="89.6" cy="54.2" r="2"/>
<circle class="dot dot-30" style="stroke:#6b9bd2" cx="116.4" cy="51.4" r="2"/>
<circle class="dot dot-30" style="stroke:#6b9bd2" cx="143.2" cy="57.4" r="2"/>
<circle class="dot dot-30" style="stroke:#6b9bd2" cx="170.0" cy="64.6" r="2"/>
<circle class="dot dot-30" style="stroke:#6b9bd2" cx="196.8" cy="65.8" r="2"/>
<circle class="dot dot-30" style="stroke:#6b9bd2" cx="223.6" cy="59.8" r="2"/>
<circle class="dot dot-30" style="stroke:#6b9bd2" cx="250.4" cy="60.9" r="2"/>
<circle class="dot dot-30" style="stroke:#6b9bd2" cx="277.2" cy="79.9" r="2"/>
<circle class="dot dot-30" style="stroke:#6b9bd2" cx="304.0" cy="93.6" r="2"/>
<line x1="36" y1="209" x2="48" y2="209" stroke="#c89b3c" stroke-width="1.5"/>
<text class="legend-text" x="51" y="212">10 lp/mm S</text>
<line x1="92" y1="209" x2="104" y2="209" stroke="#c89b3c" stroke-width="1.5" stroke-dasharray="3 2"/>
<text class="legend-text" x="107" y="212">10 lp/mm M</text>
<line x1="148" y1="209" x2="160" y2="209" stroke="#6b9bd2" stroke-width="1.5"/>
<text class="legend-text" x="163" y="212">30 lp/mm S</text>
<line x1="204" y1="209" x2="216" y2="209" stroke="#6b9bd2" stroke-width="1.5" stroke-dasharray="3 2"/>
<text class="legend-text" x="219" y="212">30 lp/mm M</text>
</svg>
