<svg xmlns="http://www.w3.org/2000/svg" viewBox="0 0 320 218" role="img" aria-label="MTF chart, generated from readings">
<style>.grid-line { stroke: #d8d8d8; stroke-width: 0.5; }.axis-label { font-size: 7px; fill: #666666; font-family: ui-monospace, monospace; }.axis-y { text-anchor: end; }.axis-x { text-anchor: middle; }.axis-title { font-size: 7px; fill: #666666; text-anchor: middle; }.curve { fill: none; stroke-width: 1.5; }.curve-m { stroke-dasharray: 4 2; }.dot { fill: white; stroke-width: 1; }.legend-text { font-size: 7px; fill: #666666; font-family: ui-monospace, monospace; }</style>
<line class="grid-line" x1="36" y1="172.0" x2="304" y2="172.0"/>
<line class="grid-line" x1="36" y1="140.0" x2="304" y2="140.0"/>
<line class="grid-line" x1="36" y1="108.0" x2="304" y2="108.0"/>
<line class="grid-line" x1="36" y1="76.0" x2="304" y2="76.0"/>
<line class="grid-line" x1="36" y1="44.0" x2="304" y2="44.0"/>
<line class="grid-line" x1="36" y1="12.0" x2="304" y2="12.0"/>
<text class="axis-label axis-y" x="32" y="175.0">0.0</text>
<text class="axis-label axis-y" x="32" y="143.0">0.2</text>
<text class="axis-label axis-y" x="32" y="111.0">0.4</text>
<text class="axis-label axis-y" x="32" y="79.0">0.6</text>
<text class="axis-label axis-y" x="32" y="47.0">0.8</text>
<text class="axis-label axis-y" x="32" y="15.0">1.0</text>
<text class="axis-label axis-x" x="36.0" y="186">C</text>
<text class="axis-label axis-x" x="62.8" y="186">2.2</text>
<text class="axis-label axis-x" x="89.6" y="186">4.3</text>
<text class="axis-label axis-x" x="116.4" y="186">6.5</text>
<text class="axis-label axis-x" x="143.2" y="186">8.6</text>
<text class="axis-label axis-x" x="170.0" y="186">10.8</text>
<text class="axis-label axis-x" x="196.8" y="186">13.0</text>
<text class="axis-label axis-x" x="223.6" y="186">15.1</text>
<text class="axis-label axis-x" x="250.4" y="186">17.3</text>
<text class="axis-label axis-x" x="277.2" y="186">19.4</text>
<text class="axis-label axis-x" x="304.0" y="186">21.6</text>
<text class="axis-title" x="170.0" y="198">Image height (mm)</text>
<polyline class="curve curve-10" style="stroke:#c89b3c" points="36.0,13.9 62.8,13.9 89.6,14.3 116.4,14.8 143.2,15.4 170.0,16.0 196.8,17.5 223.6,20.5 250.4,25.7 277.2,31.3 304.0,37.1"/>
<polyline class="curve curve-10 curve-m" style="stroke:#c89b3c" points="36.0,13.9 62.8,13.9 89.6,14.3 116.4,14.8 143.2,15.4 170.0,18.9 196.8,20.2 223.6,20.5 250.4,19.6 277.2,20.6 304.0,23.5" stroke-dasharray="4 2"/>
<polyline class="curve curve-30" style="stroke:#6b9bd2" points="36.0,20.8 62.8,21.6 89.6,23.3 116.4,25.9 143.2,30.2 170.0,36.8 196.8,46.7 223.6,61.3 250.4,75.3 277.2,84.6 304.0,88.0"/>
<polyline class="curve curve-30 curve-m" style="stroke:#6b9bd2" points="36.0,20.8 62.8,19.0 89.6,20.6 116.4,28.8 143.2,39.4 170.0,52.5 196.8,61.6 223.6,62.9 250.4,61.2 277.2,62.7 304.0,68.8" stroke-dasharray="4 2"/>
<circle class="dot dot-10" style="stroke:#c89b3c" cx="36.0" cy="13.9" r="2"/>
<circle class="dot dot-10" style="stroke:#c89b3c" cx="62.8" cy="13.9" r="2"/>
<circle class="dot dot-10" style="stroke:#c89b3c" cx="89.6" cy="14.3" r="2"/>
<circle class="dot dot-10" style="stroke:#c89b3c" cx="116.4" cy="14.8" r="2"/>
<circle class="dot dot-10" style="stroke:#c89b3c" cx="143.2" cy="15.4" r="2"/>
<circle class="dot dot-10" style="stroke:#c89b3c" cx="170.0" cy="16.0" r="2"/>
<circle class="dot dot-10" style="stroke:#c89b3c" cx="196.8" cy="17.5" r="2"/>
<circle class="dot dot-10" style="stroke:#c89b3c" cx="223.6" cy="20.5" r="2"/>
<circle class="dot dot-10" style="stroke:#c89b3c" cx="250.4" cy="25.7" r="2"/>
<circle class="dot dot-10" style="stroke:#c89b3c" cx="277.2" cy="31.3" r="2"/>
<circle class="dot dot-10" style="stroke:#c89b3c" cx="304.0" cy="37.1" r="2"/>
<circle class="dot dot-10" style="stroke:#c89b3c" cx="36.0" cy="13.9" r="2"/>
<circle class="dot dot-10" style="stroke:#c89b3c" cx="62.8" cy="13.9" r="2"/>
<circle class="dot dot-10" style="stroke:#c89b3c" cx="89.6" cy="14.3" r="2"/>
<circle class="dot dot-10" style="stroke:#c89b3c" cx="116.4" cy="14.8" r="2"/>
<circle class="dot dot-10" style="stroke:#c89b3c" cx="143.2" cy="15.4" r="2"/>
<circle class="dot dot-10" style="stroke:#c89b3c" cx="170.0" cy="18.9" r="2"/>
<circle class="dot dot-10" style="stroke:#c89b3c" cx="196.8" cy="20.2" r="2"/>
<circle class="dot dot-10" style="stroke:#c89b3c" cx="223.6" cy="20.5" r="2"/>
<circle class="dot dot-10" style="stroke:#c89b3c" cx="250.4" cy="19.6" r="2"/>
<circle class="dot dot-10" style="stroke:#c89b3c" cx="277.2" cy="20.6" r="2"/>
<circle class="dot dot-10" style="stroke:#c89b3c" cx="304.0" cy="23.5" r="2"/>
<circle class="dot dot-30" style="stroke:#6b9bd2" cx="36.0" cy="20.8" r="2"/>
<circle class="dot dot-30" style="stroke:#6b9bd2" cx="62.8" cy="21.6" r="2"/>
<circle class="dot dot-30" style="stroke:#6b9bd2" cx="89.6" cy="23.3" r="2"/>
<circle class="dot dot-30" style="stroke:#6b9bd2" cx="116.4" cy="25.9" r="2"/>
<circle class="dot dot-30" style="stroke:#6b9bd2" cx="143.2" cy="30.2" r="2"/>
<circle class="dot dot-30" style="stroke:#6b9bd2" cx="170.0" cy="36.8" r="2"/>
<circle class="dot dot-30" style="stroke:#6b9bd2" cx="196.8" cy="46.7" r="2"/>
<circle class="dot dot-30" style="stroke:#6b9bd2" cx="223.6" cy="61.3" r="2"/>
<circle class="dot dot-30" style="stroke:#6b9bd2" cx="250.4" cy="75.3" r="2"/>
<circle class="dot dot-30" style="stroke:#6b9bd2" cx="277.2" cy="84.6" r="2"/>
<circle class="dot dot-30" style="stroke:#6b9bd2" cx="304.0" cy="88.0" r="2"/>
<circle class="dot dot-30" style="stroke:#6b9bd2" cx="36.0" cy="20.8" r="2"/>
<circle class="dot dot-30" style="stroke:#6b9bd2" cx="62.8" cy="19.0" r="2"/>
<circle class="dot dot-30" style="stroke:#6b9bd2" cx="89.6" cy="20.6" r="2"/>
<circle class="dot dot-30" style="stroke:#6b9bd2" cx="116.4" cy="28.8" r="2"/>
<circle class="dot dot-30" style="stroke:#6b9bd2" cx="143.2" cy="39.4" r="2"/>
<circle class="dot dot-30" style="stroke:#6b9bd2" cx="170.0" cy="52.5" r="2"/>
<circle class="dot dot-30" style="stroke:#6b9bd2" cx="196.8" cy="61.6" r="2"/>
<circle class="dot dot-30" style="stroke:#6b9bd2" cx="223.6" cy="62.9" r="2"/>
<circle class="dot dot-30" style="stroke:#6b9bd2" cx="250.4" cy="61.2" r="2"/>
<circle class="dot dot-30" style="stroke:#6b9bd2" cx="277.2" cy="62.7" r="2"/>
<circle class="dot dot-30" style="stroke:#6b9bd2" cx="304.0" cy="68.8" r="2"/>
<line x1="36" y1="209" x2="48" y2="209" stroke="#c89b3c" stroke-width="1.5"/>
<text class="legend-text" x="51" y="212">10 lp/mm S</text>
<line x1="92" y1="209" x2="104" y2="209" stroke="#c89b3c" stroke-width="1.5" stroke-dasharray="3 2"/>
<text class="legend-text" x="107" y="212">10 lp/mm M</text>
<line x1="148" y1="209" x2="160" y2="209" stroke="#6b9bd2" stroke-width="1.5"/>
<text class="legend-text" x="163" y="212">30 lp/mm S</text>
<line x1="204" y1="209" x2="216" y2="209" stroke="#6b9bd2" stroke-width="1.5" stroke-dasharray="3 2"/>
<text class="legend-text" x="219" y="212">30 lp/mm M</text>
</svg>
