<svg xmlns="http://www.w3.org/2000/svg" viewBox="0 0 320 218" role="img" aria-label="MTF chart, generated from readings">
<style>.grid-line { stroke: #d8d8d8; stroke-width: 0.5; }.axis-label { font-size: 7px; fill: #666666; font-family: ui-monospace, monospace; }.axis-y { text-anchor: end; }.axis-x { text-anchor: middle; }.axis-title { font-size: 7px; fill: #666666; text-anchor: middle; }.curve { fill: none; stroke-width: 1.5; }.curve-m { stroke-dasharray: 4 2; }.dot { fill: white; stroke-width: 1; }.legend-text { font-size: 7px; fill: #666666; font-family: ui-monospace, monospace; }</style>
<line class="grid-line" x1="36" y1="172.0" x2="304" y2="172.0"/>
<line class="grid-line" x1="36" y1="140.0" x2="304" y2="140.0"/>
<line class="grid-line" x1="36" y1="108.0" x2="304" y2="108.0"/>
<line class="grid-line" x1="36" y1="76.0" x2="304" y2="76.0"/>
<line class="grid-line" x1="36" y1="44.0" x2="304" y2="44.0"/>
<line class="grid-line" x1="36" y1="12.0" x2="304" y2="12.0"/>
<text class="axis-label axis-y" x="32" y="175.0">0.0</text>
<text class="axis-label axis-y" x="32" y="143.0">0.2</text>
<text class="axis-label axis-y" x="32" y="111.0">0.4</text>
<text class="axis-label axis-y" x="32" y="79.0">0.6</text>
<text class="axis-label axis-y" x="32" y="47.0">0.8</text>
<text class="axis-label axis-y" x="32" y="15.0">1.0</text>
<text class="axis-label axis-x" x="36.0" y="186">C</text>
<text class="axis-label axis-x" x="62.8" y="186">1.4</text>
<text class="axis-label axis-x" x="89.6" y="186">2.8</text>
<text class="axis-label axis-x" x="116.4" y="186">4.2</text>
<text class="axis-label axis-x" x="143.2" y="186">5.6</text>
<text class="axis-label axis-x" x="170.0" y="186">7</text>
<text class="axis-label axis-x" x="196.8" y="186">8.4</text>
<text class="axis-label axis-x" x="223.6" y="186">9.8</text>
<text class="axis-label axis-x" x="250.4" y="186">11.2</text>
<text class="axis-label axis-x" x="277.2" y="186">12.6</text>
<text class="axis-label axis-x" x="304.0" y="186">14</text>
<text class="axis-title" x="170.0" y="198">Image height (mm)</text>
<polyline class="curve curve-10" style="stroke:#c89b3c" points="36.0,29.6 62.8,30.6 89.6,29.6 116.4,26.8 143.2,25.9 170.0,26.8 196.8,25.9 223.6,26.4 250.4,32.4 277.2,45.4 304.0,65.8"/>
<polyline class="curve curve-10 curve-m" style="stroke:#c89b3c" points="36.0,29.6 62.8,30.6 89.6,29.6 116.4,28.2 143.2,26.8 170.0,27.8 196.8,29.9 223.6,28.0 250.4,33.3 277.2,35.2 304.0,33.3" stroke-dasharray="4 2"/>
<polyline class="curve curve-30" style="stroke:#6b9bd2" points="36.0,85.3 62.8,85.3 89.6,82.0 116.4,75.5 143.2,72.3 170.0,71.4 196.8,73.0 223.6,78.3 250.4,89.0 277.2,102.9 304.0,119.6"/>
<polyline class="curve curve-30 curve-m" style="stroke:#6b9bd2" points="36.0,85.3 62.8,85.3 89.6,83.4 116.4,83.4 143.2,83.9 170.0,85.3 196.8,82.3 223.6,93.2 250.4,100.3 277.2,107.5 304.0,107.5" stroke-dasharray="4 2"/>
<circle class="dot dot-10" style="stroke:#c89b3c" cx="36.0" cy="29.6" r="2"/>
<circle class="dot dot-10" style="stroke:#c89b3c" cx="62.8" cy="30.6" r="2"/>
<circle class="dot dot-10" style="stroke:#c89b3c" cx="89.6" cy="29.6" r="2"/>
<circle class="dot dot-10" style="stroke:#c89b3c" cx="116.4" cy="26.8" r="2"/>
<circle class="dot dot-10" style="stroke:#c89b3c" cx="143.2" cy="25.9" r="2"/>
<circle class="dot dot-10" style="stroke:#c89b3c" cx="170.0" cy="26.8" r="2"/>
<circle class="dot dot-10" style="stroke:#c89b3c" cx="196.8" cy="25.9" r="2"/>
<circle class="dot dot-10" style="stroke:#c89b3c" cx="223.6" cy="26.4" r="2"/>
<circle class="dot dot-10" style="stroke:#c89b3c" cx="250.4" cy="32.4" r="2"/>
<circle class="dot dot-10" style="stroke:#c89b3c" cx="277.2" cy="45.4" r="2"/>
<circle class="dot dot-10" style="stroke:#c89b3c" cx="304.0" cy="65.8" r="2"/>
<circle class="dot dot-10" style="stroke:#c89b3c" cx="36.0" cy="29.6" r="2"/>
<circle class="dot dot-10" style="stroke:#c89b3c" cx="62.8" cy="30.6" r="2"/>
<circle class="dot dot-10" style="stroke:#c89b3c" cx="89.6" cy="29.6" r="2"/>
<circle class="dot dot-10" style="stroke:#c89b3c" cx="116.4" cy="28.2" r="2"/>
<circle class="dot dot-10" style="stroke:#c89b3c" cx="143.2" cy="26.8" r="2"/>
<circle class="dot dot-10" style="stroke:#c89b3c" cx="170.0" cy="27.8" r="2"/>
<circle class="dot dot-10" style="stroke:#c89b3c" cx="196.8" cy="29.9" r="2"/>
<circle class="dot dot-10" style="stroke:#c89b3c" cx="223.6" cy="28.0" r="2"/>
<circle class="dot dot-10" style="stroke:#c89b3c" cx="250.4" cy="33.3" r="2"/>
<circle class="dot dot-10" style="stroke:#c89b3c" cx="277.2" cy="35.2" r="2"/>
<circle class="dot dot-10" style="stroke:#c89b3c" cx="304.0" cy="33.3" r="2"/>
<circle class="dot dot-30" style="stroke:#6b9bd2" cx="36.0" cy="85.3" r="2"/>
<circle class="dot dot-30" style="stroke:#6b9bd2" cx="62.8" cy="85.3" r="2"/>
<circle class="dot dot-30" style="stroke:#6b9bd2" cx="89.6" cy="82.0" r="2"/>
<circle class="dot dot-30" style="stroke:#6b9bd2" cx="116.4" cy="75.5" r="2"/>
<circle class="dot dot-30" style="stroke:#6b9bd2" cx="143.2" cy="72.3" r="2"/>
<circle class="dot dot-30" style="stroke:#6b9bd2" cx="170.0" cy="71.4" r="2"/>
<circle class="dot dot-30" style="stroke:#6b9bd2" cx="196.8" cy="73.0" r="2"/>
<circle class="dot dot-30" style="stroke:#6b9bd2" cx="223.6" cy="78.3" r="2"/>
<circle class="dot dot-30" style="stroke:#6b9bd2" cx="250.4" cy="89.0" r="2"/>
<circle class="dot dot-30" style="stroke:#6b9bd2" cx="277.2" cy="102.9" r="2"/>
<circle class="dot dot-30" style="stroke:#6b9bd2" cx="304.0" cy="119.6" r="2"/>
<circle class="dot dot-30" style="stroke:#6b9bd2" cx="36.0" cy="85.3" r="2"/>
<circle class="dot dot-30" style="stroke:#6b9bd2" cx="62.8" cy="85.3" r="2"/>
<circle class="dot dot-30" style="stroke:#6b9bd2" cx="89.6" cy="83.4" r="2"/>
<circle class="dot dot-30" style="stroke:#6b9bd2" cx="116.4" cy="83.4" r="2"/>
<circle class="dot dot-30" style="stroke:#6b9bd2" cx="143.2" cy="83.9" r="2"/>
<circle class="dot dot-30" style="stroke:#6b9bd2" cx="170.0" cy="85.3" r="2"/>
<circle class="dot dot-30" style="stroke:#6b9bd2" cx="196.8" cy="82.3" r="2"/>
<circle class="dot dot-30" style="stroke:#6b9bd2" cx="223.6" cy="93.2" r="2"/>
<circle class="dot dot-30" style="stroke:#6b9bd2" cx="250.4" cy="100.3" r="2"/>
<circle class="dot dot-30" style="stroke:#6b9bd2" cx="277.2" cy="107.5" r="2"/>
<circle class="dot dot-30" style="stroke:#6b9bd2" cx="304.0" cy="107.5" r="2"/>
<line x1="36" y1="209" x2="48" y2="209" stroke="#c89b3c" stroke-width="1.5"/>
<text class="legend-text" x="51" y="212">10 lp/mm S</text>
<line x1="92" y1="209" x2="104" y2="209" stroke="#c89b3c" stroke-width="1.5" stroke-dasharray="3 2"/>
<text class="legend-text" x="107" y="212">10 lp/mm M</text>
<line x1="148" y1="209" x2="160" y2="209" stroke="#6b9bd2" stroke-width="1.5"/>
<text class="legend-text" x="163" y="212">30 lp/mm S</text>
<line x1="204" y1="209" x2="216" y2="209" stroke="#6b9bd2" stroke-width="1.5" stroke-dasharray="3 2"/>
<text class="legend-text" x="219" y="212">30 lp/mm M</text>
</svg>
