<svg xmlns="http://www.w3.org/2000/svg" viewBox="0 0 320 218" role="img" aria-label="MTF chart, generated from readings">
<style>.grid-line { stroke: #d8d8d8; stroke-width: 0.5; }.axis-label { font-size: 7px; fill: #666666; font-family: ui-monospace, monospace; }.axis-y { text-anchor: end; }.axis-x { text-anchor: middle; }.axis-title { font-size: 7px; fill: #666666; text-anchor: middle; }.curve { fill: none; stroke-width: 1.5; }.curve-m { stroke-dasharray: 4 2; }.dot { fill: white; stroke-width: 1; }.legend-text { font-size: 7px; fill: #666666; font-family: ui-monospace, monospace; }</style>
<line class="grid-line" x1="36" y1="172.0" x2="304" y2="172.0"/>
<line class="grid-line" x1="36" y1="140.0" x2="304" y2="140.0"/>
<line class="grid-line" x1="36" y1="108.0" x2="304" y2="108.0"/>
<line class="grid-line" x1="36" y1="76.0" x2="304" y2="76.0"/>
<line class="grid-line" x1="36" y1="44.0" x2="304" y2="44.0"/>
<line class="grid-line" x1="36" y1="12.0" x2="304" y2="12.0"/>
<text class="axis-label axis-y" x="32" y="175.0">0.0</text>
<text class="axis-label axis-y" x="32" y="143.0">0.2</text>
<text class="axis-label axis-y" x="32" y="111.0">0.4</text>
<text class="axis-label axis-y" x="32" y="79.0">0.6</text>
<text class="axis-label axis-y" x="32" y="47.0">0.8</text>
<text class="axis-label axis-y" x="32" y="15.0">1.0</text>
<text class="axis-label axis-x" x="36.0" y="186">C</text>
<text class="axis-label axis-x" x="62.8" y="186">1.4</text>
<text class="axis-label axis-x" x="89.6" y="186">2.8</text>
<text class="axis-label axis-x" x="116.4" y="186">4.3</text>
<text class="axis-label axis-x" x="143.2" y="186">5.7</text>
<text class="axis-label axis-x" x="170.0" y="186">7.1</text>
<text class="axis-label axis-x" x="196.8" y="186">8.5</text>
<text class="axis-label axis-x" x="223.6" y="186">9.9</text>
<text class="axis-label axis-x" x="250.4" y="186">11.4</text>
<text class="axis-label axis-x" x="277.2" y="186">12.8</text>
<text class="axis-label axis-x" x="304.0" y="186">14.2</text>
<text class="axis-title" x="170.0" y="198">Image height (mm)</text>
<polyline class="curve curve-10" style="stroke:#c89b3c" points="36.0,21.9 62.8,21.7 89.6,21.5 116.4,21.1 143.2,21.1 170.0,21.0 196.8,21.1 223.6,21.9 250.4,23.3 277.2,25.3 304.0,28.0"/>
<polyline class="curve curve-10 curve-m" style="stroke:#c89b3c" points="36.0,21.9 62.8,21.7 89.6,21.5 116.4,21.1 143.2,21.1 170.0,21.0 196.8,23.9 223.6,25.4 250.4,28.3 277.2,31.6 304.0,35.8" stroke-dasharray="4 2"/>
<polyline class="curve curve-30" style="stroke:#6b9bd2" points="36.0,51.7 62.8,50.1 89.6,48.6 116.4,47.3 143.2,46.4 170.0,46.9 196.8,49.6 223.6,54.8 250.4,62.5 277.2,70.4 304.0,76.3"/>
<polyline class="curve curve-30 curve-m" style="stroke:#6b9bd2" points="36.0,51.7 62.8,50.1 89.6,51.4 116.4,51.7 143.2,52.8 170.0,55.2 196.8,61.2 223.6,72.1 250.4,84.6 277.2,93.7 304.0,97.5" stroke-dasharray="4 2"/>
<circle class="dot dot-10" style="stroke:#c89b3c" cx="36.0" cy="21.9" r="2"/>
<circle class="dot dot-10" style="stroke:#c89b3c" cx="62.8" cy="21.7" r="2"/>
<circle class="dot dot-10" style="stroke:#c89b3c" cx="89.6" cy="21.5" r="2"/>
<circle class="dot dot-10" style="stroke:#c89b3c" cx="116.4" cy="21.1" r="2"/>
<circle class="dot dot-10" style="stroke:#c89b3c" cx="143.2" cy="21.1" r="2"/>
<circle class="dot dot-10" style="stroke:#c89b3c" cx="170.0" cy="21.0" r="2"/>
<circle class="dot dot-10" style="stroke:#c89b3c" cx="196.8" cy="21.1" r="2"/>
<circle class="dot dot-10" style="stroke:#c89b3c" cx="223.6" cy="21.9" r="2"/>
<circle class="dot dot-10" style="stroke:#c89b3c" cx="250.4" cy="23.3" r="2"/>
<circle class="dot dot-10" style="stroke:#c89b3c" cx="277.2" cy="25.3" r="2"/>
<circle class="dot dot-10" style="stroke:#c89b3c" cx="304.0" cy="28.0" r="2"/>
<circle class="dot dot-10" style="stroke:#c89b3c" cx="36.0" cy="21.9" r="2"/>
<circle class="dot dot-10" style="stroke:#c89b3c" cx="62.8" cy="21.7" r="2"/>
<circle class="dot dot-10" style="stroke:#c89b3c" cx="89.6" cy="21.5" r="2"/>
<circle class="dot dot-10" style="stroke:#c89b3c" cx="116.4" cy="21.1" r="2"/>
<circle class="dot dot-10" style="stroke:#c89b3c" cx="143.2" cy="21.1" r="2"/>
<circle class="dot dot-10" style="stroke:#c89b3c" cx="170.0" cy="21.0" r="2"/>
<circle class="dot dot-10" style="stroke:#c89b3c" cx="196.8" cy="23.9" r="2"/>
<circle class="dot dot-10" style="stroke:#c89b3c" cx="223.6" cy="25.4" r="2"/>
<circle class="dot dot-10" style="stroke:#c89b3c" cx="250.4" cy="28.3" r="2"/>
<circle class="dot dot-10" style="stroke:#c89b3c" cx="277.2" cy="31.6" r="2"/>
<circle class="dot dot-10" style="stroke:#c89b3c" cx="304.0" cy="35.8" r="2"/>
<circle class="dot dot-30" style="stroke:#6b9bd2" cx="36.0" cy="51.7" r="2"/>
<circle class="dot dot-30" style="stroke:#6b9bd2" cx="62.8" cy="50.1" r="2"/>
<circle class="dot dot-30" style="stroke:#6b9bd2" cx="89.6" cy="48.6" r="2"/>
<circle class="dot dot-30" style="stroke:#6b9bd2" cx="116.4" cy="47.3" r="2"/>
<circle class="dot dot-30" style="stroke:#6b9bd2" cx="143.2" cy="46.4" r="2"/>
<circle class="dot dot-30" style="stroke:#6b9bd2" cx="170.0" cy="46.9" r="2"/>
<circle class="dot dot-30" style="stroke:#6b9bd2" cx="196.8" cy="49.6" r="2"/>
<circle class="dot dot-30" style="stroke:#6b9bd2" cx="223.6" cy="54.8" r="2"/>
<circle class="dot dot-30" style="stroke:#6b9bd2" cx="250.4" cy="62.5" r="2"/>
<circle class="dot dot-30" style="stroke:#6b9bd2" cx="277.2" cy="70.4" r="2"/>
<circle class="dot dot-30" style="stroke:#6b9bd2" cx="304.0" cy="76.3" r="2"/>
<circle class="dot dot-30" style="stroke:#6b9bd2" cx="36.0" cy="51.7" r="2"/>
<circle class="dot dot-30" style="stroke:#6b9bd2" cx="62.8" cy="50.1" r="2"/>
<circle class="dot dot-30" style="stroke:#6b9bd2" cx="89.6" cy="51.4" r="2"/>
<circle class="dot dot-30" style="stroke:#6b9bd2" cx="116.4" cy="51.7" r="2"/>
<circle class="dot dot-30" style="stroke:#6b9bd2" cx="143.2" cy="52.8" r="2"/>
<circle class="dot dot-30" style="stroke:#6b9bd2" cx="170.0" cy="55.2" r="2"/>
<circle class="dot dot-30" style="stroke:#6b9bd2" cx="196.8" cy="61.2" r="2"/>
<circle class="dot dot-30" style="stroke:#6b9bd2" cx="223.6" cy="72.1" r="2"/>
<circle class="dot dot-30" style="stroke:#6b9bd2" cx="250.4" cy="84.6" r="2"/>
<circle class="dot dot-30" style="stroke:#6b9bd2" cx="277.2" cy="93.7" r="2"/>
<circle class="dot dot-30" style="stroke:#6b9bd2" cx="304.0" cy="97.5" r="2"/>
<line x1="36" y1="209" x2="48" y2="209" stroke="#c89b3c" stroke-width="1.5"/>
<text class="legend-text" x="51" y="212">10 lp/mm S</text>
<line x1="92" y1="209" x2="104" y2="209" stroke="#c89b3c" stroke-width="1.5" stroke-dasharray="3 2"/>
<text class="legend-text" x="107" y="212">10 lp/mm M</text>
<line x1="148" y1="209" x2="160" y2="209" stroke="#6b9bd2" stroke-width="1.5"/>
<text class="legend-text" x="163" y="212">30 lp/mm S</text>
<line x1="204" y1="209" x2="216" y2="209" stroke="#6b9bd2" stroke-width="1.5" stroke-dasharray="3 2"/>
<text class="legend-text" x="219" y="212">30 lp/mm M</text>
</svg>
